 <svg version="1.0" xmlns="http://www.w3.org/2000/svg"  width="300.000000pt" height="300.000000pt" viewBox="0 0 300.000000 300.000000"  preserveAspectRatio="xMidYMid meet">  <g transform="translate(0.000000,300.000000) scale(0.050000,-0.050000)" fill="#ff0000" stroke="none"> <path d="M2678 4471 c-106 -29 -283 -121 -327 -170 -27 -30 -13 -50 152 -212 100 -98 231 -240 290 -314 108 -134 110 -135 207 -135 97 0 99 1 207 135 60 74 191 216 291 314 207 204 207 207 12 306 -204 104 -600 140 -832 76z"/> <path d="M950 4381 c-239 -52 -686 -232 -600 -243 53 -7 126 10 190 42 341 173 1104 245 1390 130 249 -100 441 -257 628 -515 46 -63 95 -115 109 -115 194 0 -329 526 -680 684 -142 64 -771 74 -1037 17z"/> <path d="M4146 4400 c-157 -23 -435 -191 -618 -374 -95 -94 -249 -308 -237 -327 26 -42 72 -13 151 96 202 279 416 448 678 535 272 91 1034 6 1340 -150 64 -32 137 -49 190 -42 31 4 -125 88 -274 147 -298 120 -848 171 -1230 115z"/> <path d="M2158 3985 c-85 -222 -94 -401 -29 -615 36 -121 175 -350 187 -309 5 16 35 82 67 146 175 351 150 618 -71 768 -117 79 -127 80 -154 10z"/> <path d="M3689 3976 c-222 -151 -247 -418 -72 -769 32 -64 62 -130 67 -146 12 -42 151 189 191 319 47 150 42 397 -9 539 -48 135 -57 138 -177 57z"/> <path d="M1974 3590 c-53 -305 57 -720 223 -843 61 -45 68 188 8 261 -107 130 -176 315 -202 540 l-14 122 -15 -80z"/> <path d="M4002 3590 c-6 -189 -97 -445 -206 -582 -59 -74 -53 -305 7 -261 126 93 238 399 235 640 -3 186 -31 346 -36 203z"/> <path d="M2704 3596 c-13 -13 -24 -39 -24 -58 0 -86 145 -106 157 -22 12 85 -76 137 -133 80z"/> <path d="M3182 3592 c-14 -16 -22 -51 -19 -76 9 -58 110 -65 145 -11 46 73 -71 154 -126 87z"/> <path d="M2736 3368 c-177 -54 -314 -236 -367 -485 -41 -193 -38 -209 40 -251 38 -20 109 -77 158 -126 80 -80 94 -87 133 -66 60 32 540 32 599 0 41 -21 54 -15 127 59 45 46 116 102 158 126 86 48 89 62 47 258 -90 427 -450 622 -895 485z"/> <path d="M2261 2463 c-63 -233 103 -563 410 -815 161 -131 187 -135 118 -19 -29 51 -51 118 -50 155 1 36 2 142 3 235 1 112 11 177 28 190 14 12 30 55 36 96 l11 74 -78 -39 c-107 -55 -108 -55 -237 80 -145 150 -209 162 -241 43z"/> <path d="M3498 2420 c-129 -135 -130 -135 -237 -80 l-78 39 11 -74 c6 -41 22 -84 36 -96 17 -13 27 -78 28 -190 1 -93 2 -199 3 -235 1 -36 -21 -105 -48 -155 -62 -109 -45 -112 83 -10 298 235 444 478 444 739 0 230 -64 247 -242 62z"/> </g> </svg> 