<?xml version="1.0" standalone="no"?>
<!DOCTYPE svg PUBLIC "-//W3C//DTD SVG 20010904//EN"
 "http://www.w3.org/TR/2001/REC-SVG-20010904/DTD/svg10.dtd">
<svg version="1.0" xmlns="http://www.w3.org/2000/svg"
 width="300.000000pt" height="300.000000pt" viewBox="0 0 300.000000 300.000000"
 preserveAspectRatio="xMidYMid meet">
<metadata>
Created by potrace 1.10, written by Peter Selinger 2001-2011
</metadata>
<g transform="translate(0.000000,300.000000) scale(0.100000,-0.100000)"
fill="#000000" stroke="none">
<path d="M1380 2249 c-62 -11 -149 -48 -196 -84 l-32 -25 117 -118 c65 -65
126 -132 135 -150 9 -17 30 -38 46 -47 62 -32 103 -14 170 75 27 38 91 106
141 153 l90 86 -48 35 c-26 19 -77 44 -112 56 -75 25 -228 34 -311 19z m280
-45 c52 -16 130 -58 130 -71 0 -4 -44 -52 -97 -108 -54 -55 -112 -118 -129
-138 -43 -51 -84 -51 -127 0 -18 21 -76 83 -129 139 -54 55 -98 105 -98 111 0
10 116 67 155 76 52 12 244 6 295 -9z"/>
<path d="M590 2214 c-106 -16 -173 -30 -230 -49 -87 -30 -200 -85 -200 -97 0
-16 69 -2 133 26 153 68 452 105 608 76 139 -26 297 -148 395 -302 25 -40 44
-47 62 -25 19 23 -103 166 -217 256 -87 68 -158 99 -252 111 -78 9 -243 12
-299 4z"/>
<path d="M2097 2209 c-112 -15 -230 -86 -349 -211 -73 -77 -112 -134 -104
-153 10 -26 35 -17 60 23 77 122 173 208 299 268 64 30 87 35 173 41 175 10
376 -22 543 -86 131 -50 170 -37 54 19 -85 41 -160 67 -248 86 -85 19 -335 26
-428 13z"/>
<path d="M1081 2013 c-18 -36 -41 -142 -41 -194 0 -90 33 -186 93 -276 26 -39
37 -42 37 -9 0 13 13 51 30 84 16 34 37 92 47 130 14 59 14 76 3 115 -15 56
-63 114 -118 145 -39 22 -41 22 -51 5z m85 -68 c42 -32 58 -82 52 -159 -5 -55
-38 -156 -59 -180 -14 -16 -47 23 -65 78 -24 71 -28 180 -8 239 18 54 32 58
80 22z"/>
<path d="M1858 2001 c-57 -36 -93 -83 -109 -142 -10 -38 -10 -56 5 -113 9 -38
30 -94 46 -127 17 -32 30 -70 30 -84 0 -37 11 -31 49 27 48 72 81 176 81 252
0 60 -29 189 -47 207 -5 5 -27 -3 -55 -20z m57 -83 c20 -70 19 -143 -4 -216
-39 -122 -56 -130 -94 -44 -54 121 -51 214 9 276 50 51 70 48 89 -16z"/>
<path d="M990 1840 c-22 -72 -18 -233 9 -305 20 -56 98 -185 112 -185 4 0 9
28 12 63 4 51 2 66 -14 87 -11 14 -36 58 -56 98 -32 66 -37 85 -42 180 l-7
107 -14 -45z m80 -340 c12 -16 18 -35 15 -41 -8 -12 -29 15 -38 49 -7 29 -3
28 23 -8z"/>
<path d="M1988 1778 c-4 -91 -9 -114 -36 -171 -17 -37 -42 -82 -55 -99 -21
-29 -24 -41 -19 -95 2 -35 7 -63 11 -63 4 0 28 32 54 71 72 109 98 228 78 359
-18 115 -28 114 -33 -2z m-43 -288 c-9 -16 -20 -30 -25 -30 -14 0 -13 7 6 35
23 35 38 31 19 -5z"/>
<path d="M1358 1807 c-28 -22 -27 -61 3 -77 16 -9 26 -8 45 5 30 19 31 49 2
69 -27 19 -28 19 -50 3z"/>
<path d="M1592 1804 c-29 -20 -28 -50 2 -69 52 -34 97 34 48 72 -22 16 -23 16
-50 -3z"/>
<path d="M1415 1700 c-64 -14 -91 -27 -133 -64 -64 -58 -112 -178 -112 -281 0
-27 5 -34 26 -39 14 -4 50 -30 79 -59 50 -48 57 -52 77 -41 15 8 68 13 148 13
80 0 133 -5 148 -13 20 -11 27 -7 77 41 29 29 65 55 79 59 21 5 26 12 26 39 0
143 -80 285 -186 330 -44 18 -175 27 -229 15z m233 -54 c70 -36 130 -134 147
-242 6 -40 6 -41 -57 -93 l-64 -53 -174 0 c-149 1 -177 3 -194 18 -11 9 -38
31 -62 49 -37 28 -41 36 -38 67 9 109 71 215 148 255 62 33 229 32 294 -1z"/>
<path d="M1132 1255 c-40 -88 16 -247 131 -372 43 -47 175 -148 183 -141 2 3
-12 26 -32 53 -40 52 -56 123 -35 149 9 11 10 20 1 36 -8 15 -8 25 0 35 8 9 7
20 -2 40 -10 23 -10 29 5 40 10 7 20 33 23 59 l7 47 -34 -20 c-19 -12 -43 -21
-53 -21 -11 0 -47 27 -82 60 -68 66 -95 74 -112 35z m92 -60 c55 -52 77 -65
109 -65 24 0 28 -3 22 -17 -4 -10 -9 -63 -11 -118 -4 -116 -5 -125 -14 -125
-17 0 -102 99 -131 154 -25 47 -33 76 -37 133 -5 86 4 93 62 38z"/>
<path d="M1794 1258 c-16 -13 -44 -40 -62 -60 -39 -43 -62 -47 -109 -19 -17
11 -33 17 -36 15 -9 -9 16 -89 32 -100 13 -10 13 -16 3 -39 -9 -20 -10 -31 -2
-40 8 -10 8 -20 0 -35 -9 -16 -8 -25 1 -36 21 -26 5 -97 -35 -149 -20 -27 -34
-50 -32 -53 8 -7 136 91 177 135 121 130 179 287 137 378 -14 31 -37 32 -74 3z
m47 -45 c6 -107 -37 -215 -117 -296 -42 -42 -49 -46 -58 -30 -5 9 -11 68 -12
130 -2 107 -1 113 17 113 30 0 59 18 102 61 40 42 66 50 68 22z"/>
</g>
</svg>
